<svg id="visual" viewBox="0 0 960 540" width="960" height="540" xmlns="http://www.w3.org/2000/svg" xmlns:xlink="http://www.w3.org/1999/xlink" version="1.1"><rect x="0" y="0" width="960" height="540" fill="#53bbed"></rect><path d="M736 540L735.8 527.2C735.7 514.3 735.3 488.7 749.5 463C763.7 437.3 792.3 411.7 790.2 386C788 360.3 755 334.7 752.5 308.8C750 283 778 257 790.8 231.2C803.7 205.3 801.3 179.7 785.2 154C769 128.3 739 102.7 731 77C723 51.3 737 25.7 744 12.8L751 0L960 0L960 12.8C960 25.7 960 51.3 960 77C960 102.7 960 128.3 960 154C960 179.7 960 205.3 960 231.2C960 257 960 283 960 308.8C960 334.7 960 360.3 960 386C960 411.7 960 437.3 960 463C960 488.7 960 514.3 960 527.2L960 540Z" fill="#375fbf" stroke-linecap="round" stroke-linejoin="miter"></path></svg>